<svg xmlns="http://www.w3.org/2000/svg" viewBox="0 0 512 512">
  <defs>
    <linearGradient id="bg" x1="0%" y1="0%" x2="100%" y2="100%">
      <stop offset="0%" style="stop-color:#0a0a0f"/>
      <stop offset="100%" style="stop-color:#111827"/>
    </linearGradient>
    <linearGradient id="accent" x1="0%" y1="0%" x2="100%" y2="100%">
      <stop offset="0%" style="stop-color:#3b82f6"/>
      <stop offset="100%" style="stop-color:#60a5fa"/>
    </linearGradient>
  </defs>
  <rect width="512" height="512" rx="80" fill="url(#bg)"/>
  <rect x="40" y="40" width="432" height="432" rx="60" fill="none" stroke="url(#accent)" stroke-width="3" opacity="0.3"/>
  <!-- Building silhouette -->
  <rect x="140" y="150" width="80" height="260" fill="#1e293b" rx="4"/>
  <rect x="240" y="100" width="100" height="310" fill="#1e293b" rx="4"/>
  <rect x="360" y="180" width="70" height="230" fill="#1e293b" rx="4"/>
  <!-- Windows -->
  <rect x="155" y="170" width="15" height="12" fill="#3b82f6" opacity="0.6" rx="2"/>
  <rect x="180" y="170" width="15" height="12" fill="#3b82f6" opacity="0.4" rx="2"/>
  <rect x="155" y="200" width="15" height="12" fill="#3b82f6" opacity="0.5" rx="2"/>
  <rect x="180" y="200" width="15" height="12" fill="#3b82f6" opacity="0.7" rx="2"/>
  <rect x="155" y="230" width="15" height="12" fill="#3b82f6" opacity="0.3" rx="2"/>
  <rect x="180" y="230" width="15" height="12" fill="#3b82f6" opacity="0.6" rx="2"/>
  <rect x="260" y="120" width="15" height="12" fill="#3b82f6" opacity="0.5" rx="2"/>
  <rect x="285" y="120" width="15" height="12" fill="#3b82f6" opacity="0.7" rx="2"/>
  <rect x="310" y="120" width="15" height="12" fill="#3b82f6" opacity="0.4" rx="2"/>
  <rect x="260" y="150" width="15" height="12" fill="#3b82f6" opacity="0.6" rx="2"/>
  <rect x="285" y="150" width="15" height="12" fill="#3b82f6" opacity="0.3" rx="2"/>
  <rect x="310" y="150" width="15" height="12" fill="#3b82f6" opacity="0.8" rx="2"/>
  <rect x="260" y="180" width="15" height="12" fill="#3b82f6" opacity="0.4" rx="2"/>
  <rect x="285" y="180" width="15" height="12" fill="#3b82f6" opacity="0.6" rx="2"/>
  <rect x="310" y="180" width="15" height="12" fill="#3b82f6" opacity="0.5" rx="2"/>
  <rect x="375" y="200" width="12" height="10" fill="#3b82f6" opacity="0.5" rx="2"/>
  <rect x="395" y="200" width="12" height="10" fill="#3b82f6" opacity="0.7" rx="2"/>
  <rect x="375" y="230" width="12" height="10" fill="#3b82f6" opacity="0.4" rx="2"/>
  <rect x="395" y="230" width="12" height="10" fill="#3b82f6" opacity="0.6" rx="2"/>
  <!-- Ground line -->
  <rect x="100" y="410" width="320" height="3" fill="#3b82f6" opacity="0.4" rx="1"/>
  <!-- P letter -->
  <text x="256" y="480" font-family="Arial, sans-serif" font-size="48" font-weight="bold" fill="#3b82f6" text-anchor="middle" opacity="0.8">PIXELCODE</text>
</svg>
